HIERARCHY
ROOT Hips
{
	OFFSET	0.00	0.00	0.00
	CHANNELS 6 Xposition Yposition Zposition Zrotation Xrotation Yrotation
	JOINT LeftUpLeg
	{
		OFFSET	 0.126116	-0.014019	-0.065224
		CHANNELS 3 Zrotation Xrotation Yrotation
		JOINT LeftLeg
		{
			OFFSET	 0.000000	 0.000000	 0.569914
			CHANNELS 3 Zrotation Xrotation Yrotation
			JOINT LeftFoot
			{
				OFFSET	 0.000000	 0.000000	 0.544423
				CHANNELS 3 Zrotation Xrotation Yrotation
				JOINT LeftToeBase
				{
					OFFSET	 0.000000	 0.000000	 0.207117
					CHANNELS 3 Zrotation Xrotation Yrotation
					End Site
					{
						OFFSET	 0.000000	 0.000000	 0.207117
					}
				}
			}
		}
	}
	JOINT RightUpLeg
	{
		OFFSET	-0.124023	-0.008373	-0.065224
		CHANNELS 3 Zrotation Xrotation Yrotation
		JOINT RightLeg
		{
			OFFSET	 0.000000	 0.000000	 0.570047
			CHANNELS 3 Zrotation Xrotation Yrotation
			JOINT RightFoot
			{
				OFFSET	 0.000000	 0.000000	 0.544354
				CHANNELS 3 Zrotation Xrotation Yrotation
				JOINT RightToeBase
				{
					OFFSET	 0.000000	 0.000000	 0.207540
					CHANNELS 3 Zrotation Xrotation Yrotation
					End Site
					{
						OFFSET	 0.000000	 0.000000	 0.207540
					}
				}
			}
		}
	}
	JOINT Spine
	{
		OFFSET	 0.000184	-0.007763	 0.117403
		CHANNELS 3 Zrotation Xrotation Yrotation
		JOINT Spine1
		{
			OFFSET	 0.000000	 0.000000	 0.137269
			CHANNELS 3 Zrotation Xrotation Yrotation
			JOINT Spine2
			{
				OFFSET	 0.000000	 0.000000	 0.156879
				CHANNELS 3 Zrotation Xrotation Yrotation
				JOINT LeftShoulder
				{
					OFFSET	 0.080501	-0.002496	 0.160144
					CHANNELS 3 Zrotation Xrotation Yrotation
					JOINT LeftArm
					{
						OFFSET	 0.000000	 0.000000	 0.164363
						CHANNELS 3 Zrotation Xrotation Yrotation
						JOINT LeftForeArm
						{
							OFFSET	 0.000000	 0.000000	 0.364576
							CHANNELS 3 Zrotation Xrotation Yrotation
							JOINT LeftHand
							{
								OFFSET	 0.000000	 0.000000	 0.360812
								CHANNELS 3 Zrotation Xrotation Yrotation
								JOINT LeftHandIndex1
								{
									OFFSET	 0.000000	 0.000000	 0.086006
									CHANNELS 3 Zrotation Xrotation Yrotation
									JOINT LeftHandIndex2
									{
										OFFSET	 0.000000	 0.000000	 0.047236
										CHANNELS 3 Zrotation Xrotation Yrotation
										JOINT LeftHandIndex3
										{
											OFFSET	-0.004284	-0.000551	 0.038166
											CHANNELS 3 Zrotation Xrotation Yrotation
											End Site
											{
												OFFSET	-0.004284	-0.000551	 0.038166
											}
										}
									}
								}
							}
						}
					}
				}
				JOINT Neck
				{
					OFFSET	 0.000000	 0.000000	 0.176489
					CHANNELS 3 Zrotation Xrotation Yrotation
					JOINT Head
					{
						OFFSET	 0.000000	-0.001747	 0.077940
						CHANNELS 3 Zrotation Xrotation Yrotation
						End Site
						{
							OFFSET	 0.000000	-0.001747	 0.077940
						}
					}
				}
				JOINT RightShoulder
				{
					OFFSET	-0.080363	 0.000306	 0.159706
					CHANNELS 3 Zrotation Xrotation Yrotation
					JOINT RightArm
					{
						OFFSET	 0.000000	 0.000000	 0.164196
						CHANNELS 3 Zrotation Xrotation Yrotation
						JOINT RightForeArm
						{
							OFFSET	 0.000000	 0.000000	 0.365611
							CHANNELS 3 Zrotation Xrotation Yrotation
							JOINT RightHand
							{
								OFFSET	 0.000000	 0.000000	 0.360648
								CHANNELS 3 Zrotation Xrotation Yrotation
								JOINT RightHandIndex1
								{
									OFFSET	 0.000000	 0.000000	 0.069977
									CHANNELS 3 Zrotation Xrotation Yrotation
									JOINT RightHandIndex2
									{
										OFFSET	 0.000000	 0.000000	 0.052305
										CHANNELS 3 Zrotation Xrotation Yrotation
										JOINT RightHandIndex3
										{
											OFFSET	 0.009002	-0.000782	 0.042196
											CHANNELS 3 Zrotation Xrotation Yrotation
											End Site
											{
												OFFSET	 0.009002	-0.000782	 0.042196
											}
										}
									}
								}
							}
						}
					}
				}
			}
		}
	}
}
MOTION
Frames:    8
Frame Time: 0.03333334
 0.000300	 0.019625	 1.272662	-0.003086	 0.003503	 0.173546	 0.844895	-1.735889	 177.466900	 1.475379	-11.786530	-0.687807	-7.554062	 70.704680	 1.481279	-2.385833	 28.452760	 0.000004	-1.011056	-1.795392	-177.759500	-1.466285	-11.420850	 0.653639	 7.195437	 70.374270	-1.296457	 2.384658	 28.388730	 0.000004	-9.402813	 2.693258	 0.297668	-2.161132	 3.767533	-0.804468	 6.542443	-4.628194	 1.416815	-91.776220	 78.527430	-180.000000	 47.698670	 36.713470	-62.626120	-11.144820	 0.299334	-2.274213	-34.333450	-22.398280	-5.917853	-2.635965	 4.993658	 6.788941	-5.165319	 0.784187	 3.516649	-5.225038	 0.466231	 0.424329	-0.000002	-3.783157	-0.089647	 6.363935	 4.569066	-0.254155	 89.782160	 78.203900	 179.999900	-63.522440	 41.729230	 57.842820	 10.541990	 4.256917	 10.216010	 35.535480	-22.882120	 10.869150	 6.112037	 4.509576	-0.364401	 4.968462	 1.518543	-9.347576	 5.168945	 0.703820	 2.021906
 0.000304	 0.019588	 1.273309	-0.002996	 0.003662	 0.173858	 0.988163	-1.742282	 177.456400	 1.475409	-11.783720	-0.687637	-7.541647	 70.594150	 1.471613	-2.385833	 28.452760	 0.000004	-1.154506	-1.800372	-177.750200	-1.466332	-11.416800	 0.653402	 7.182785	 70.263520	-1.286190	 2.384658	 28.388730	 0.000004	-11.413250	 2.675611	 0.294952	-2.159468	 3.828654	-0.799326	 6.537050	-4.707185	 1.420891	-91.776210	 78.527420	-180.000000	 47.687080	 36.689300	-62.546570	-12.324140	 0.398766	-2.993871	-35.877060	-24.714750	-6.684741	-2.635965	 4.993658	 6.788941	-5.165319	 0.784187	 3.516649	-5.225038	 0.466231	 0.424329	-0.000002	-3.783157	-0.089647	 6.355509	 4.532842	-0.251803	 89.782100	 78.203890	 180.000000	-63.215130	 41.586860	 58.504600	 11.539390	 4.499571	 10.876780	 37.223610	-25.151200	 11.693400	 6.112037	 4.509576	-0.364401	 4.968462	 1.518543	-9.347576	 5.168945	 0.703820	 2.021906
 0.000314	 0.019493	 1.275019	-0.002766	 0.004081	 0.174402	 1.366479	-1.759720	 177.429100	 1.475490	-11.777140	-0.687242	-7.509193	 70.302850	 1.446600	-2.385833	 28.452760	 0.000004	-1.533186	-1.814376	-177.725500	-1.466439	-11.407650	 0.652864	 7.149875	 69.972120	-1.259689	 2.384658	 28.388730	 0.000004	-16.507050	 2.629127	 0.287514	-2.151721	 3.989584	-0.784617	 6.512677	-4.915894	 1.429377	-91.776150	 78.527450	 180.000000	 47.635140	 36.616650	-62.299380	-15.353850	 0.794750	-4.837872	-40.093020	-30.182660	-9.206979	-2.635965	 4.993658	 6.788941	-5.165319	 0.784187	 3.516649	-5.225038	 0.466231	 0.424329	-0.000002	-3.783157	-0.089647	 6.323334	 4.438647	-0.245315	 89.782160	 78.203900	 179.999900	-61.957410	 40.626990	 59.529060	 13.605270	 6.352899	 14.606280	 42.043160	-30.821270	 14.289780	 6.112037	 4.509576	-0.364401	 4.968462	 1.518543	-9.347576	 5.168945	 0.703820	 2.021906
 0.000321	 0.019411	 1.276677	-0.002533	 0.004498	 0.174533	 1.736378	-1.776029	 177.402800	 1.475590	-11.768830	-0.686743	-7.477177	 70.017260	 1.422030	-2.385833	 28.452760	 0.000004	-1.903325	-1.828337	-177.701000	-1.466541	-11.398930	 0.652352	 7.117969	 69.687520	-1.234161	 2.384658	 28.388730	 0.000004	-21.124930	 2.583925	 0.279882	-2.139475	 4.146079	-0.768529	 6.474571	-5.119852	 1.434321	-91.776210	 78.527470	-180.000000	 47.559440	 36.525630	-62.011150	-18.195400	 1.349650	-6.546563	-44.329430	-34.367440	-12.176200	-2.635965	 4.993658	 6.788941	-5.165319	 0.784187	 3.516649	-5.225038	 0.466231	 0.424329	-0.000002	-3.783157	-0.089647	 6.277995	 4.348662	-0.238610	 89.782060	 78.203870	-180.000000	-59.963380	 39.390000	 60.246260	 15.006880	 9.273715	 19.576790	 46.824890	-35.277970	 17.375460	 6.112037	 4.509576	-0.364401	 4.968462	 1.518543	-9.347576	 5.168945	 0.703820	 2.021906
 0.000327	 0.019337	 1.278315	-0.002292	 0.004903	 0.174144	 2.100514	-1.791513	 177.377500	 1.475710	-11.759180	-0.686165	-7.445385	 69.735640	 1.397786	-2.385833	 28.452760	 0.000004	-2.267547	-1.842548	-177.676700	-1.466632	-11.391000	 0.651886	 7.086844	 69.407930	-1.209456	 2.384658	 28.388730	 0.000004	-25.234770	 2.539761	 0.272217	-2.122911	 4.299002	-0.751212	 6.423307	-5.320117	 1.435859	-91.776220	 78.527430	-180.000000	 47.462970	 36.418230	-61.685920	-20.855550	 2.033727	-8.122077	-48.376160	-37.137810	-15.218430	-2.635965	 4.993658	 6.788941	-5.165319	 0.784187	 3.516649	-5.225038	 0.466231	 0.424329	-0.000002	-3.783157	-0.089647	 6.220118	 4.262290	-0.231707	 89.782130	 78.203870	 180.000000	-58.048630	 38.202240	 63.685680	 16.409860	 10.470530	 21.239330	 51.139500	-38.440450	 20.473830	 6.112037	 4.509576	-0.364401	 4.968462	 1.518543	-9.347576	 5.168945	 0.703820	 2.021906
 0.000332	 0.019262	 1.279872	-0.002043	 0.005316	 0.173353	 2.465205	-1.806842	 177.352600	 1.475835	-11.748820	-0.685542	-7.413542	 69.453350	 1.373703	-2.385833	 28.452760	 0.000004	-2.632198	-1.857390	-177.652100	-1.466716	-11.383930	 0.651470	 7.056016	 69.128540	-1.185162	 2.384658	 28.388730	 0.000004	-28.836820	 2.495900	 0.264312	-2.101830	 4.450841	-0.732444	 6.358305	-5.519877	 1.434001	-91.776130	 78.527470	 180.000000	 47.348820	 36.296290	-61.325800	-23.368290	 2.828852	-9.580786	-51.971500	-38.469650	-17.922670	-2.635965	 4.993658	 6.788941	-5.165319	 0.784187	 3.516649	-5.225038	 0.466231	 0.424329	-0.000002	-3.783157	-0.089647	 6.149038	 4.178048	-0.224523	 89.782170	 78.203890	 179.999900	-55.964190	 36.868390	 67.831540	 17.526650	 11.181560	 22.051210	 54.559930	-40.359990	 23.084080	 6.112037	 4.509576	-0.364401	 4.968462	 1.518543	-9.347576	 5.168945	 0.703820	 2.021906
 0.000335	 0.019182	 1.281345	-0.001776	 0.005741	 0.172069	 2.842155	-1.822127	 177.327400	 1.475984	-11.736700	-0.684815	-7.380435	 69.161090	 1.348816	-2.385833	 28.452760	 0.000004	-3.008963	-1.873444	-177.626300	-1.466789	-11.377740	 0.651106	 7.024544	 68.840580	-1.160593	 2.384658	 28.388730	 0.000004	-31.942440	 2.451075	 0.255986	-2.075333	 4.606014	-0.711678	 6.276835	-5.725013	 1.428417	-91.776120	 78.527470	 179.999900	 47.218750	 36.158080	-60.927800	-25.885790	 3.733783	-10.951230	-54.751990	-38.341500	-19.868840	-2.635965	 4.993658	 6.788941	-5.165319	 0.784187	 3.516649	-5.225038	 0.466231	 0.424329	-0.000002	-3.783157	-0.089647	 6.061957	 4.093507	-0.216855	 89.782140	 78.203850	 180.000000	-53.426590	 35.249150	 71.701960	 17.835950	 12.143570	 23.372660	 56.435760	-41.243870	 24.561090	 6.112037	 4.509576	-0.364401	 4.968462	 1.518543	-9.347576	 5.168945	 0.703820	 2.021906
 0.000338	 0.019096	 1.282740	-0.001501	 0.006165	 0.170198	 3.227113	-1.837035	 177.302300	 1.476157	-11.722620	-0.683970	-7.346398	 68.862000	 1.323361	-2.385833	 28.452760	 0.000004	-3.393570	-1.890517	-177.599800	-1.466849	-11.372430	 0.650795	 6.992744	 68.547200	-1.135983	 2.384658	 28.388730	 0.000004	-34.398000	 2.405918	 0.247454	-2.043343	 4.762346	-0.689065	 6.178704	-5.932691	 1.418713	-91.776180	 78.527430	-180.000000	 47.073790	 36.002280	-60.496160	-28.183230	 4.707842	-12.198270	-56.604370	-36.755210	-20.698710	-2.635965	 4.993658	 6.788941	-5.165319	 0.784187	 3.516649	-5.225038	 0.466231	 0.424329	-0.000002	-3.783157	-0.089647	 5.958840	 4.009906	-0.208804	 89.782100	 78.203850	 180.000000	-50.817990	 33.607130	 77.081430	 18.179970	 11.660520	 22.451990	 56.874650	-40.757420	 24.673060	 6.112037	 4.509576	-0.364401	 4.968462	 1.518543	-9.347576	 5.168945	 0.703820	 2.021906
